PathFileType	4	(X/Y/Z)	c:/Users/goper/Files/vsCode/490R/osim_files/A02/A02_Slow_04.trc
DataRate	CameraRate	NumFrames	NumMarkers	Units                	OrigDataRate	OrigDataStartFrame	OrigNumFrames
250.00	250.00	5	36	mm	250.0	1942	3106
                Frame#	Time	Mobility_markerset:LPSIS			Mobility_markerset:LASIS			Mobility_markerset:LTH1			Mobility_markerset:LTH2			Mobility_markerset:LTH3			Mobility_markerset:LTH4			Mobility_markerset:LLFE			Mobility_markerset:LMFE			Mobility_markerset:LSH1			Mobility_markerset:LSH2			Mobility_markerset:LSH3			Mobility_markerset:LSH4			Mobility_markerset:LLMAL			Mobility_markerset:LMMAL			Mobility_markerset:LCAL			Mobility_markerset:LMTP5			Mobility_markerset:LTOE			Mobility_markerset:LMTP1			Mobility_markerset:RPSIS			Mobility_markerset:RASIS			Mobility_markerset:RTH1			Mobility_markerset:RTH2			Mobility_markerset:RTH3			Mobility_markerset:RTH4			Mobility_markerset:RLFE			Mobility_markerset:RMFE			Mobility_markerset:RSH1			Mobility_markerset:RSH2			Mobility_markerset:RSH3			Mobility_markerset:RSH4			Mobility_markerset:RLMAL			Mobility_markerset:RMMAL			Mobility_markerset:RCAL			Mobility_markerset:RMTP1			Mobility_markerset:RTOE			Mobility_markerset:RMTP5		
		X1	Y1	Z1	X2	Y2	Z2	X3	Y3	Z3	X4	Y4	Z4	X5	Y5	Z5	X6	Y6	Z6	X7	Y7	Z7	X8	Y8	Z8	X9	Y9	Z9	X10	Y10	Z10	X11	Y11	Z11	X12	Y12	Z12	X13	Y13	Z13	X14	Y14	Z14	X15	Y15	Z15	X16	Y16	Z16	X17	Y17	Z17	X18	Y18	Z18	X19	Y19	Z19	X20	Y20	Z20	X21	Y21	Z21	X22	Y22	Z22	X23	Y23	Z23	X24	Y24	Z24	X25	Y25	Z25	X26	Y26	Z26	X27	Y27	Z27	X28	Y28	Z28	X29	Y29	Z29	X30	Y30	Z30	X31	Y31	Z31	X32	Y32	Z32	X33	Y33	Z33	X34	Y34	Z34	X35	Y35	Z35	X36	Y36	Z36

1942	7.76400	-1169.56299	942.61908	317.45044	-1318.18420	913.90265	390.52762	-1277.46460	650.77509	407.37625	0.00000	0.00000	0.00000	-1331.33313	671.57312	428.63885	0.00000	0.00000	0.00000	0.00000	0.00000	0.00000	-1427.02954	452.81863	257.68890	-1327.84741	390.63727	363.19449	-1321.81714	346.70154	368.05386	-1386.91772	379.24664	373.80637	-1372.72302	334.76883	375.50146	-1319.89844	99.02888	323.62579	-1335.99451	105.98011	242.10089	-1252.53015	80.20277	274.38293	-1409.69617	45.33885	345.30545	-1463.06116	60.63892	281.20691	-1429.62354	35.15390	233.54166	-1172.93420	963.62152	216.85023	-1331.82312	951.47644	150.83205	-1302.69678	627.37091	102.76579	-1307.01245	583.52032	102.51493	-1363.82788	626.72815	109.16051	-1359.02991	584.03577	106.00253	-1316.05420	471.87421	91.37250	-1324.40161	468.21164	225.73409	-1176.18652	349.65781	110.43771	-1147.57861	314.89319	120.75739	-1219.41077	308.62512	111.43479	-1183.04102	277.84113	117.32086	-1032.05591	199.78607	118.74779	-1035.41638	200.40346	204.15479	-978.52081	222.53786	158.61679	-1104.76855	87.28259	206.22313	-1130.13708	80.00980	173.09076	-1102.97791	87.77213	114.14300
1943	7.76800	-1173.14526	943.93097	317.71896	-1322.05823	915.04016	390.85254	-1279.31433	651.83209	407.35382	0.00000	0.00000	0.00000	-1333.33447	672.20959	428.83038	-1346.24951	629.73657	419.16171	0.00000	0.00000	0.00000	0.00000	0.00000	0.00000	-1328.00928	391.05255	363.08212	-1321.92114	346.99774	367.99133	-1387.03918	379.48071	373.98782	-1372.78174	335.02664	375.61029	-1320.00293	99.15691	323.71988	-1336.20764	106.21775	242.21721	-1252.63660	80.48235	274.42383	-1409.77075	45.30484	345.30234	-1463.14917	60.60998	281.23328	-1429.64404	35.21397	233.56602	-1176.64270	964.86298	217.18686	-1335.33667	952.86456	151.13489	-1307.67981	628.93091	102.88369	-1312.46094	585.03986	102.65796	-1368.91748	628.42365	109.00166	-1364.40637	585.89709	106.10677	-1322.16479	473.45432	91.56482	-1330.50977	469.86752	225.96431	-1183.85632	349.52725	110.55115	-1155.58215	314.38605	120.95228	-1227.61584	308.99683	111.60045	-1191.65295	277.77271	117.67036	-1041.64844	197.90572	118.86813	-1047.43286	196.28470	202.85391	-987.75873	220.00868	158.77037	-1115.35706	86.10107	206.32184	-1141.15662	79.38450	173.28331	-1113.80823	86.69778	114.36433
1944	7.77200	-1176.68872	945.13672	317.96310	-1325.43994	916.26904	390.93396	-1281.18555	652.89410	407.34052	0.00000	0.00000	0.00000	-1335.15442	672.87695	428.93579	0.00000	0.00000	0.00000	0.00000	0.00000	0.00000	0.00000	0.00000	0.00000	-1328.21130	391.39935	362.97916	-1322.02991	347.32465	367.92136	-1387.27258	379.63174	374.22034	-1372.83362	335.31042	375.70715	-1320.16675	99.36454	323.81683	-1336.43823	106.52238	242.31441	-1252.77942	80.80465	274.53925	-1409.77417	45.23966	345.28430	-1463.28687	60.59237	281.27167	-1429.61621	35.28971	233.60219	-1180.18323	966.16467	217.43111	-1338.94324	954.24969	151.42355	-1312.71436	630.42566	103.01736	-1317.79944	586.54608	102.83713	-1373.48975	630.46423	109.33286	-1369.72876	587.67426	106.31400	-1328.27454	474.96637	91.73148	-1336.54175	471.56137	226.11363	-1191.51892	349.38892	110.70609	-1163.64746	313.83890	121.08630	-1235.70886	309.32251	111.82191	-1200.27417	277.66058	117.86079	-1051.16541	195.91826	119.03675	-1057.09827	194.34950	203.12070	-997.07294	217.36774	158.96239	-1126.82397	85.16571	206.82529	-1152.18665	78.50443	173.65974	-1124.76257	85.60020	114.51923
1945	7.77600	-1180.30420	946.37195	318.22211	-1329.32275	917.34930	391.41153	-1283.10583	653.95294	407.22110	0.00000	0.00000	0.00000	-1337.01038	673.55835	429.05734	-1349.38098	631.10260	419.61133	0.00000	0.00000	0.00000	0.00000	0.00000	0.00000	-1327.89929	391.95166	363.19183	-1322.16162	347.70465	367.82834	-1387.38831	380.02567	374.37415	-1372.96008	335.63251	375.83688	-1320.30103	99.56136	323.89999	-1336.82056	106.78365	242.33537	-1253.00085	81.18690	274.68204	-1409.83569	45.19893	345.27805	-1463.37268	60.53926	281.28333	-1429.65588	35.35392	233.64244	-1183.66931	967.42383	217.70587	-1342.55261	955.56775	151.78430	-1317.73474	631.78656	103.14830	-1322.89795	588.01373	102.96565	-1378.60291	632.51117	109.51791	-1374.97449	589.50311	106.40553	-1334.13049	476.47925	91.91687	-1342.49158	473.13223	226.29071	-1199.11182	349.02740	110.93939	-1171.69849	313.19577	121.31198	-1243.84192	309.58640	111.98401	-1208.85181	277.49536	117.99387	-1060.84875	193.78806	119.28636	-1066.75916	192.35904	203.35640	-1006.42023	214.48682	159.21622	-1137.94641	84.01841	206.95169	-1163.31848	77.67085	173.89664	-1135.89453	84.46503	114.70621
1946	7.78000	-1183.80518	947.58514	318.30673	-1332.76050	918.43927	391.66599	-1284.87122	655.04462	407.14413	0.00000	0.00000	0.00000	-1338.93262	674.28235	429.13986	0.00000	0.00000	0.00000	0.00000	0.00000	0.00000	-1449.17371	488.67816	206.35878	-1328.81921	392.09125	362.88083	-1322.30176	348.11859	367.70084	-1387.51807	380.35269	374.53973	-1373.03394	336.00281	375.94461	-1320.58289	100.01887	324.04248	-1337.48975	107.00140	242.07344	-1253.06543	81.38554	274.76208	-1409.87048	45.16434	345.26895	-1463.52356	60.51940	281.33505	-1429.70593	35.42090	233.68445	-1187.31860	968.60736	217.91406	-1345.61243	956.68237	152.59961	-1322.61047	633.21863	103.29862	-1328.10181	589.43317	103.11613	-1383.56750	634.29602	109.64192	-1380.01794	591.21503	106.56184	-1339.99292	478.00186	92.09943	-1348.48267	474.70370	226.44225	-1206.78735	348.71429	111.11655	-1179.80005	312.48993	121.50172	-1252.00476	309.84579	112.16895	-1217.39465	277.28680	118.19028	-1070.68567	191.55896	119.54069	-1076.64087	190.37387	203.75826	-1015.94739	211.45984	159.52588	-1149.27380	82.96399	207.15611	-1174.80078	76.94942	173.98697	-1147.20508	83.36325	114.92265
